<svg fill="none" height="24" viewBox="0 0 24 24" width="24" xmlns="http://www.w3.org/2000/svg"><path d="m9.87285 17.831-.64952-.375zm-1.75656 3.0424.64952.375zm-6.2859-3.6291-.64951-.375zm1.75656-3.0425.64952.375zm2.64594 6.5103-.70968.2426zm-.24384-.7133.70968-.2426zm-2.3376-1.3496-.14475-.7359zm-.73968.1455.14474.7359zm2.33025-.2012.375-.6495zm-3.96434.2117-.615156.4291zm9.10242-1.8733-.59922-.4511-.036.0479-.02796.0529zm3.4687.8991.6495-.375zm1.7565 3.0424.6496-.375zm6.2859-3.6291.6496-.375zm-1.7565-3.0425-.6495.375zm-2.646 6.5103.7097.2426zm.2439-.7133-.7097-.2426zm2.3376-1.3496.1447-.7359zm.7397.1455-.1448.7359zm1.6341.0105.6151.4291zm-9.1068-1.8815h-.75v.1855l.0865.1641zm-8.50976-4.3764-.67202.333zm5.61536 4.3012.1452-.7358zm2.8944.0402-.1244-.7396zm5.7753-4.2228-.6664-.3442zm-14.63106.1329-.56361-.4949zm.26854-3.7988c0-4.00406 3.24593-7.25 7.25002-7.25v-1.5c-4.83252 0-8.75002 3.91751-8.75002 8.75zm7.25002-7.25c4.004 0 7.25 3.24594 7.25 7.25h1.5c0-4.83249-3.9175-8.75-8.75-8.75zm-2.77667 15.706-1.75656 3.0424 1.29904.75 1.75659-3.0424zm-6.74342.1633 1.75656-3.0425-1.29904-.75-1.75655 3.0425zm4.46266 2.8503-.24384-.7134-1.41936.4852.24384.7133zm-3.43587-2.5563-.73967.1455.28948 1.4718.73968-.1455zm3.19203 1.8429c-.13195-.386-.25234-.7425-.38862-1.0211-.14539-.2972-.34813-.592-.69309-.7911l-.75 1.299c.00127.0007.00178.0011.00265.0019.00104.0009.005.0044.01191.0127.01504.0183.04225.0572.0811.1366.08505.1739.17208.4242.31669.8472zm-2.90254-.3711c.43866-.0863.69893-.136.89203-.1493.08819-.0061.13554-.002.15884.0019.01071.0018.01574.0035.01702.0039.00109.0004.00167.0007.00294.0014l.75-1.299c-.34496-.1992-.70162-.2274-1.03171-.2047-.30941.0213-.67834.0953-1.07861.174zm-2.61531-2.5158c-.235307.4075-.45523.7847-.580011 1.0949-.117734.2927-.266006.8003.061655 1.2701l1.230306-.8581c.13699.1964.01728.3527.09968.1478.07535-.1873.22712-.4539.4874-.9047zm1.58615 1.1895c-.50633.0996-.80225.1558-.9989.1656-.21316.0106-.01644-.0506.1247.1518l-1.230306.8581c.331812.4757.864436.5039 1.180086.4882.33216-.0165.75795-.1022 1.2139-.1919zm4.69974 2.4396c-.26028.4509-.41527.7156-.53982.8745-.1362.1738-.06073-.008.17786.0124l-.12798 1.4945c.57068.0489.93609-.3333 1.13071-.5816.20626-.2632.42297-.6422.65827-1.0498zm-1.94356.4563c.15032.4398.28896.8514.44074 1.1473.14423.2812.43497.7284 1.01288.7778l.12798-1.4945c.24582.0211.29121.222.19381.0321-.08985-.1752-.18913-.4596-.35605-.9479zm-1.28674-6.3779c.42721-.7399.62321-1.0721.80857-1.2832l-1.12721-.9897c-.30783.3507-.58951.8459-.9804 1.5229zm6.28593 3.6292c.21-.3638.3849-.6664.5208-.9237l-1.32628-.7007c-.1198.2267-.2783.5015-.49359.8744zm2.6769 0 1.7565 3.0424 1.2991-.75-1.7566-3.0424zm9.3415-1.3367-1.7566-3.0425-1.299.75 1.7565 3.0425zm-4.3424 4.0854.2439-.7133-1.4194-.4852-.2438.7134zm1.727-1.5696.7397.1455.2895-1.4718-.7397-.1455zm-1.4831.8563c.1446-.423.2316-.6733.3167-.8472.0388-.0794.066-.1183.081-.1366.007-.0083.0109-.0118.012-.0127.0008-.0008.0013-.0012.0026-.0019l-.75-1.299c-.3449.1991-.5477.4939-.6931.7911-.1363.2786-.2566.6351-.3886 1.0211zm1.7726-2.3281c-.4002-.0787-.7692-.1527-1.0786-.174-.3301-.0227-.6867.0055-1.0317.2047l.75 1.299c.0013-.0007.0019-.001.0029-.0014.0013-.0004.0064-.0021.0171-.0039.0233-.0039.0706-.008.1588-.0019.1931.0133.4534.063.892.1493zm1.0268-.294c.2603.4508.4121.7174.4874.9047.0824.2048-.0373.0486.0997-.1478l1.2303.8581c.3277-.4698.1794-.9774.0617-1.2701-.1248-.3102-.3447-.6874-.58-1.0949zm-.5766 1.9113c.456.0897.8818.1754 1.2139.1919.3157.0157.8483-.0125 1.1801-.4882l-1.2303-.8581c.1411-.2024.3379-.1412.1247-.1518-.1966-.0098-.4926-.066-.9989-.1656zm-5.7093 1.7178c.2353.4076.452.7866.6583 1.0498.1946.2483.56.6305 1.1307.5816l-.128-1.4945c.2386-.0204.3141.1614.1779-.0124-.1246-.1589-.2796-.4236-.5398-.8745zm1.8233-.7789c-.167.4883-.2662.7727-.3561.9479-.0974.1899-.052-.011.1938-.0321l.128 1.4945c.5779-.0494.8686-.4966 1.0129-.7778.1518-.2959.2904-.7075.4407-1.1473zm-2.2808-3.0135c-.2178-.3772-.3774-.654-.4976-.882l-1.327.6993c.1367.2595.3132.5648.5256.9327zm-8.99883-5.2417c-.47957-.9678-.74949-2.0585-.74949-3.2143h-1.5c0 1.392.32558 2.7101.90544 3.8803zm6.50053 4.0357c-.4839 0-.9559-.0473-1.412-.1373l-.2903 1.4717c.5512.1087 1.1205.1656 1.7023.1656zm-1.412-.1373c-2.23512-.4409-4.10385-1.9112-5.08853-3.8984l-1.34405.666c1.18717 2.3958 3.43997 4.171 6.14228 4.7041zm.3912 1.2703.0628-.0834-1.19836-.9021-.06276.0833zm2.2336-1.2339c-.3939.0663-.799.1009-1.2128.1009v1.5c.4975 0 .9859-.0416 1.4617-.1217zm.8744.7746v-.035h-1.5v.035zm5.1628-7.9237c0 1.1987-.2904 2.3274-.8039 3.3217l1.3328.6883c.6208-1.2021.9711-2.5662.9711-4.01zm-.8039 3.3217c-1.0283 1.9911-2.9512 3.4434-5.2333 3.8274l.2489 1.4792c2.7594-.4643 5.0777-2.2183 6.3172-4.6183zm2.3381 1.5051c-.4517-.7823-.759-1.3306-1.1567-1.7062l-1.03 1.0905c.1979.187.3818.4895.8877 1.3657zm-15.73916-.5332c.00626-.0071.03391-.0339.11569-.0744l-.66657-1.3438c-.1762.0874-.39259.2193-.57633.4285z" fill="#2d264b"/></svg>